<?xml version="1.0" standalone="no"?>
<!DOCTYPE svg PUBLIC "-//W3C//DTD SVG 20010904//EN"
 "http://www.w3.org/TR/2001/REC-SVG-20010904/DTD/svg10.dtd">
<svg version="1.0" xmlns="http://www.w3.org/2000/svg"
 width="1280.000000pt" height="1280.000000pt" viewBox="0 0 1280.000000 1280.000000"
 preserveAspectRatio="xMidYMid meet">
<metadata>
Created by potrace 1.16, written by Peter Selinger 2001-2019
</metadata>
<g transform="translate(0.000000,1280.000000) scale(0.100000,-0.100000)"
fill="#000000" stroke="none">
<path d="M4954 11181 c-89 -24 -162 -61 -234 -117 -30 -23 -789 -777 -1686
-1676 -1258 -1259 -1639 -1647 -1667 -1693 -94 -159 -118 -372 -61 -541 48
-144 -37 -55 1758 -1851 l1681 -1681 85 -40 c112 -53 174 -67 295 -66 274 0
513 171 607 434 l23 65 3 867 2 868 1028 0 c656 0 1058 -4 1112 -10 468 -58
911 -290 1211 -633 253 -290 410 -631 465 -1007 23 -161 15 -482 -16 -625 -47
-222 -138 -433 -251 -585 -32 -43 -102 -125 -157 -183 -154 -162 -196 -253
-190 -410 3 -80 7 -101 35 -158 39 -80 111 -150 191 -187 47 -22 74 -27 157
-30 100 -4 100 -3 182 37 112 57 357 221 505 339 341 272 603 557 842 917 127
190 213 342 287 506 178 394 276 748 336 1204 26 201 26 793 0 975 -140 973
-629 1802 -1400 2374 -474 351 -982 559 -1607 659 -132 21 -164 21 -1432 24
l-1298 4 0 847 c0 946 2 913 -70 1052 -77 146 -200 253 -355 306 -109 37 -275
43 -381 15z"/>
</g>
</svg>
